# xmcd
#
# Track frame offsets:
#	150
#	18187
#	33642
#	48501
#	61273
#	77568
#	88133
#	106536
#	124238
#	138717
#
# Disc length: 2053 seconds
#
# Revision: 0
# Processed by: cddbd v1.5.2PL0 Copyright (c) Steve Scherf et al.
# Submitted via: dBpowerAMP V4.0
#
DISCID=7e08030a
DTITLE=Brian Capps - Walk Through Walls
DYEAR=2005
DGENRE=Americana
TTITLE0=The Bottom
TTITLE1=Next Time
TTITLE2=The Devil To Pay
TTITLE3=True Liar
TTITLE4=Walk Thru Walls
TTITLE5=I Wouldn't Say That's Living
TTITLE6=Dark As A Dungeon
TTITLE7=When We Learn
TTITLE8=Standing On A Rock
TTITLE9=God Knows Why
EXTD=
EXTT0=
EXTT1=
EXTT2=
EXTT3=
EXTT4=
EXTT5=
EXTT6=
EXTT7=
EXTT8=
EXTT9=
PLAYORDER=
